<?xml version="1.0" encoding="UTF-8"?>
<svg width="128" height="128" viewBox="0 0 128 128" xmlns="http://www.w3.org/2000/svg">
  <!-- 背景圆形 -->
  <circle cx="64" cy="64" r="60" fill="#4285F4" opacity="0.9"/>
  
  <!-- 翻译图标 -->
  <g transform="scale(0.9) translate(7, 7)">
    <!-- 左侧文档 -->
    <rect x="25" y="25" width="40" height="78" rx="5" ry="5" fill="white" stroke="white" stroke-width="1"/>
    
    <!-- 右侧文档 -->
    <rect x="50" y="35" width="40" height="78" rx="5" ry="5" fill="white" stroke="white" stroke-width="1"/>
    
    <!-- 左侧文档文本线 -->
    <line x1="32" y1="38" x2="58" y2="38" stroke="#EA4335" stroke-width="4" stroke-linecap="round"/>
    <line x1="32" y1="48" x2="54" y2="48" stroke="#EA4335" stroke-width="4" stroke-linecap="round"/>
    <line x1="32" y1="58" x2="50" y2="58" stroke="#EA4335" stroke-width="4" stroke-linecap="round"/>
    
    <!-- 右侧文档文本线 -->
    <line x1="57" y1="48" x2="83" y2="48" stroke="#34A853" stroke-width="4" stroke-linecap="round"/>
    <line x1="57" y1="58" x2="79" y2="58" stroke="#34A853" stroke-width="4" stroke-linecap="round"/>
    <line x1="57" y1="68" x2="75" y2="68" stroke="#34A853" stroke-width="4" stroke-linecap="round"/>
    
    <!-- 翻译箭头 -->
    <path d="M45 85l15 15 15-15" fill="none" stroke="#FBBC05" stroke-width="4" stroke-linecap="round" stroke-linejoin="round"/>
    <path d="M75 40l-15-15-15 15" fill="none" stroke="#EA4335" stroke-width="4" stroke-linecap="round" stroke-linejoin="round"/>
    <line x1="60" y1="25" x2="60" y2="100" stroke="white" stroke-width="4" stroke-linecap="round"/>
  </g>
  
  <!-- A-文 字母标识 -->
  <text x="40" y="70" font-family="Arial, sans-serif" font-weight="bold" font-size="18" fill="white">A</text>
  <text x="76" y="70" font-family="Arial, sans-serif" font-weight="bold" font-size="18" fill="white">文</text>
</svg>