<?xml version="1.0" encoding="UTF-8"?>
<svg width="96" height="96" viewBox="0 0 96 96" xmlns="http://www.w3.org/2000/svg">
  <!-- 背景圆形 -->
  <circle cx="48" cy="48" r="45" fill="#4285F4" opacity="0.9"/>
  
  <!-- 翻译图标 -->
  <g transform="scale(0.85) translate(8, 8)">
    <!-- 左侧文档 -->
    <rect x="20" y="20" width="30" height="56" rx="4" ry="4" fill="white" stroke="white" stroke-width="1"/>
    
    <!-- 右侧文档 -->
    <rect x="40" y="28" width="30" height="56" rx="4" ry="4" fill="white" stroke="white" stroke-width="1"/>
    
    <!-- 左侧文档文本线 -->
    <line x1="26" y1="30" x2="44" y2="30" stroke="#EA4335" stroke-width="3" stroke-linecap="round"/>
    <line x1="26" y1="38" x2="40" y2="38" stroke="#EA4335" stroke-width="3" stroke-linecap="round"/>
    <line x1="26" y1="46" x2="36" y2="46" stroke="#EA4335" stroke-width="3" stroke-linecap="round"/>
    
    <!-- 右侧文档文本线 -->
    <line x1="46" y1="38" x2="64" y2="38" stroke="#34A853" stroke-width="3" stroke-linecap="round"/>
    <line x1="46" y1="46" x2="60" y2="46" stroke="#34A853" stroke-width="3" stroke-linecap="round"/>
    <line x1="46" y1="54" x2="56" y2="54" stroke="#34A853" stroke-width="3" stroke-linecap="round"/>
    
    <!-- 翻译箭头 -->
    <path d="M35 64l10 10 10-10" fill="none" stroke="#FBBC05" stroke-width="3" stroke-linecap="round" stroke-linejoin="round"/>
    <path d="M55 32l-10-10-10 10" fill="none" stroke="#EA4335" stroke-width="3" stroke-linecap="round" stroke-linejoin="round"/>
    <line x1="45" y1="22" x2="45" y2="74" stroke="white" stroke-width="3" stroke-linecap="round"/>
  </g>
  
  <!-- A-文 字母标识 -->
  <text x="32" y="52" font-family="Arial, sans-serif" font-weight="bold" font-size="14" fill="white">A</text>
  <text x="56" y="52" font-family="Arial, sans-serif" font-weight="bold" font-size="14" fill="white">文</text>
</svg>