<?xml version="1.0" encoding="UTF-8"?>
<svg width="200" height="200" viewBox="0 0 1024 1024" xmlns="http://www.w3.org/2000/svg">
  <!-- 背景圆形 -->
  <circle cx="512" cy="512" r="460" fill="#4285F4" opacity="0.1"/>
  
  <!-- 主体翻译图标 -->
  <g>
    <!-- 左侧文档 -->
    <path d="M320 192c-44.18 0-80 35.82-80 80v480c0 44.18 35.82 80 80 80h240c44.18 0 80-35.82 80-80V272c0-44.18-35.82-80-80-80H320z" fill="#FFFFFF" stroke="#4285F4" stroke-width="24"/>
    
    <!-- 右侧文档 -->
    <path d="M464 352c-44.18 0-80 35.82-80 80v320c0 44.18 35.82 80 80 80h240c44.18 0 80-35.82 80-80V432c0-44.18-35.82-80-80-80H464z" fill="#FFFFFF" stroke="#34A853" stroke-width="24"/>
    
    <!-- 左侧文档文本线 -->
    <line x1="280" y1="300" x2="480" y2="300" stroke="#4285F4" stroke-width="16" stroke-linecap="round"/>
    <line x1="280" y1="360" x2="440" y2="360" stroke="#4285F4" stroke-width="16" stroke-linecap="round"/>
    <line x1="280" y1="420" x2="400" y2="420" stroke="#4285F4" stroke-width="16" stroke-linecap="round"/>
    
    <!-- 右侧文档文本线 -->
    <line x1="504" y1="460" x2="704" y2="460" stroke="#34A853" stroke-width="16" stroke-linecap="round"/>
    <line x1="504" y1="520" x2="664" y2="520" stroke="#34A853" stroke-width="16" stroke-linecap="round"/>
    <line x1="504" y1="580" x2="624" y2="580" stroke="#34A853" stroke-width="16" stroke-linecap="round"/>
    
    <!-- 翻译箭头 -->
    <path d="M400 640l60 60 60-60" fill="none" stroke="#FBBC05" stroke-width="20" stroke-linecap="round" stroke-linejoin="round"/>
    <path d="M624 384l-60-60-60 60" fill="none" stroke="#EA4335" stroke-width="20" stroke-linecap="round" stroke-linejoin="round"/>
    <line x1="460" y1="384" x2="460" y2="640" stroke="#4285F4" stroke-width="20" stroke-linecap="round"/>
    <line x1="564" y1="384" x2="564" y2="640" stroke="#34A853" stroke-width="20" stroke-linecap="round"/>
  </g>
  
  <!-- A-Z 字母标识 -->
  <text x="300" y="520" font-family="Arial, sans-serif" font-weight="bold" font-size="60" fill="#4285F4">A</text>
  <text x="680" y="520" font-family="Arial, sans-serif" font-weight="bold" font-size="60" fill="#34A853">文</text>
</svg>